<svg xmlns="http://www.w3.org/2000/svg" viewBox="0 0 669.36 276.59"><defs><style>.cls-1{fill:#467af6;}.cls-2{fill:#1fad1a;}</style></defs><g id="Layer_2" data-name="Layer 2"><g id="Layer_1-2" data-name="Layer 1"><path class="cls-1" d="M228.87,102.27a38.67,38.67,0,0,0,13.52,9.81,46.36,46.36,0,0,0,19.08,3.63,45.73,45.73,0,0,0,20.39-4.4A36.6,36.6,0,0,0,296.23,99a35,35,0,0,0,5.87-18.47H278a16.41,16.41,0,0,1-2.55,7.34,14.31,14.31,0,0,1-5.56,5,18.41,18.41,0,0,1-8.42,1.77q-6.65,0-10.74-3a17,17,0,0,1-5.95-8.5,38.3,38.3,0,0,1-1.85-12.28,36.83,36.83,0,0,1,2-12.82,18.33,18.33,0,0,1,6.1-8.49,16.56,16.56,0,0,1,10.27-3.1q7.43,0,11.36,3.95a15.61,15.61,0,0,1,4.55,9.65h24.26a35.41,35.41,0,0,0-19.93-30.36,44.75,44.75,0,0,0-20.24-4.4,46.14,46.14,0,0,0-18.61,3.55,38,38,0,0,0-13.52,9.74A42.62,42.62,0,0,0,221,52.6a50.1,50.1,0,0,0-2.78,16.61v2.94a50.27,50.27,0,0,0,2.63,16.14A40.85,40.85,0,0,0,228.87,102.27Z"/><polygon class="cls-1" points="300.93 0 300.93 18.23 310.97 18.23 310.97 112.77 335.84 112.77 335.84 18.23 335.84 0 310.97 0 300.93 0"/><path class="cls-1" d="M355.06,102a39.38,39.38,0,0,0,13.75,10,46.23,46.23,0,0,0,19.08,3.71A45.28,45.28,0,0,0,406.73,112a36.82,36.82,0,0,0,13.6-10.35,35.77,35.77,0,0,0,7.26-15.14H404.88A13.56,13.56,0,0,1,399,93q-4.33,2.63-11.12,2.63-7.42,0-12.05-3.09a17.83,17.83,0,0,1-6.8-8.73,31.49,31.49,0,0,1-1.71-6.88h61.8V68.59a47,47,0,0,0-4.94-21.4A40.59,40.59,0,0,0,409.9,31.28q-9.34-6.09-22.94-6.1a44.72,44.72,0,0,0-18.46,3.63A38.58,38.58,0,0,0,355,38.62a44,44,0,0,0-8.26,14,47,47,0,0,0-2.86,16.3V72a46,46,0,0,0,2.86,16A44.17,44.17,0,0,0,355.06,102ZM369.2,56.77A18.08,18.08,0,0,1,376,48.2a19.56,19.56,0,0,1,11-2.94,18.58,18.58,0,0,1,10.58,2.86A17.43,17.43,0,0,1,404,56.39a29.24,29.24,0,0,1,1.69,6.48H367.5A28.29,28.29,0,0,1,369.2,56.77Z"/><path class="cls-1" d="M478.34,111.69a23.65,23.65,0,0,0,9.57-9.27,29,29,0,0,0,2.55-6v16.35h19.62V60.87q0-11.74-4.63-19.23a28.13,28.13,0,0,0-13.52-11.21q-8.88-3.7-21.86-3.7-4.49,0-9.58.15c-3.4.1-6.69.26-9.88.46s-6,.42-8.35.62V48.82c3.19-.21,6.75-.41,10.66-.62s7.73-.36,11.43-.46,6.7-.16,9-.16q6.8,0,9.88,3.24t3.09,9.74v.31H471a63.69,63.69,0,0,0-19.93,2.85,28,28,0,0,0-13.44,8.81q-4.78,6-4.79,15.22a26.73,26.73,0,0,0,3.86,14.59,24.93,24.93,0,0,0,10.74,9.35,37.11,37.11,0,0,0,16,3.25A31.47,31.47,0,0,0,478.34,111.69ZM457.4,86.36a11,11,0,0,1,3.48-8.58c2.31-2.11,5.64-3.16,10-3.16h15.45v6.79q-.32,6.34-2.47,9.89a12.24,12.24,0,0,1-5.48,5,18.38,18.38,0,0,1-7.5,1.47c-4.32,0-7.65-1.06-10-3.17A10.64,10.64,0,0,1,457.4,86.36Z"/><path class="cls-1" d="M542.91,69.67q0-10.35,5.56-15.83t15.76-5.49h6.18V27h-3.25Q552.64,27,545,36.77q-5.78,7.35-7.18,19.38v-28H518.19v84.65h24.72Z"/><path class="cls-1" d="M490.64,156.57h-3.25q-14.52,0-22.17,9.73-5.76,7.35-7.18,19.38v-28H438.42v84.66h24.72v-43.1q0-10.35,5.56-15.84t15.76-5.48h6.18Z"/><path class="cls-1" d="M549.42,160q-8.88-3.71-21.86-3.71-4.48,0-9.58.15c-3.4.11-6.69.26-9.89.47s-6,.41-8.34.62v20.85c3.19-.2,6.75-.41,10.66-.62s7.73-.36,11.43-.46,6.7-.15,9-.15q6.8,0,9.89,3.24t3.09,9.73v.31H528.49a63.38,63.38,0,0,0-19.93,2.86,28,28,0,0,0-13.44,8.8q-4.8,6-4.79,15.22a26.77,26.77,0,0,0,3.86,14.6,24.92,24.92,0,0,0,10.74,9.34,37,37,0,0,0,16,3.25q8.8,0,14.9-3.25A23.72,23.72,0,0,0,545.4,232a29.93,29.93,0,0,0,2.55-6v16.36h19.62V190.4q0-11.73-4.63-19.23A28.11,28.11,0,0,0,549.42,160Zm-13.6,65.88a18.14,18.14,0,0,1-7.49,1.47q-6.5,0-10-3.16a10.67,10.67,0,0,1-3.48-8.27,11,11,0,0,1,3.48-8.57q3.46-3.16,10-3.17h15.45V211q-.31,6.33-2.47,9.88A12.15,12.15,0,0,1,535.82,225.85Z"/><path class="cls-1" d="M666.66,181A41.58,41.58,0,0,0,659,167.31a33.89,33.89,0,0,0-12-9,38,38,0,0,0-15.68-3.16,35,35,0,0,0-17.61,4.4A29.85,29.85,0,0,0,602.62,171V129.53H577.91V242.31h19.61V223.82a35.84,35.84,0,0,0,1.86,4.12,31,31,0,0,0,12.36,12.74A36.69,36.69,0,0,0,630,245.09a39,39,0,0,0,16.37-3.32,36.46,36.46,0,0,0,12.44-9.27,41.4,41.4,0,0,0,7.88-13.83,52.58,52.58,0,0,0,2.7-17.15v-3.39A52.58,52.58,0,0,0,666.66,181Zm-24.8,31.59a20.42,20.42,0,0,1-7.34,8.73,19.67,19.67,0,0,1-11,3.09,22.56,22.56,0,0,1-10.2-2.48,20.88,20.88,0,0,1-8.11-7.18A19.86,19.86,0,0,1,602,203.38v-5.72a22,22,0,0,1,3-11.82,20.63,20.63,0,0,1,8-7.49,22.11,22.11,0,0,1,10.51-2.63,19.55,19.55,0,0,1,18.38,11.44,28.7,28.7,0,0,1,2.63,12.67A29.86,29.86,0,0,1,641.86,212.57Z"/><path class="cls-1" d="M410.07,157.34v18.08c-.39-1-.77-2-1.23-2.94A31,31,0,0,0,397,159.35a33.8,33.8,0,0,0-17.69-4.48A39.92,39.92,0,0,0,363.27,158a36.8,36.8,0,0,0-12.52,8.89,39.22,39.22,0,0,0-8,13.44A49,49,0,0,0,339.94,197v3.56a50.81,50.81,0,0,0,2.62,16.6,40.06,40.06,0,0,0,7.58,13.36,34,34,0,0,0,12,8.89,37.74,37.74,0,0,0,15.68,3.16,33.69,33.69,0,0,0,17.3-4.24,29.21,29.21,0,0,0,11.28-12.16v7.29a24.37,24.37,0,0,1-2.94,12.13c-8.61,15.31-32.84,14.23-36,14.09-12.11-.54-21.14-5.29-26.35-8-6.57-3.47-10.93-7.06-16.74-11.83a173,173,0,0,1-19.65-19,66.07,66.07,0,0,0,6.92-14.1,84.65,84.65,0,0,0,4.29-25.64h7.83V163.06H279.85v18.07h14.46q-.4,14.38-4.45,23.68l-21.44-23.22a54.45,54.45,0,0,1-8.42-11.2,21.49,21.49,0,0,1-2.55-10.11q0-5.72,3.09-9t12.2-3.25c1.86,0,4.25.08,7.19.23s5.89.39,8.88.7,5.51.62,7.57.93v-20.4c-3-.51-6.46-.95-10.43-1.31s-7.85-.54-11.66-.54q-13.91,0-22.63,3.94t-12.9,10.89A31.57,31.57,0,0,0,234.59,159a36.12,36.12,0,0,0,1.85,11.74,36.82,36.82,0,0,0,1.49,3.58,39.51,39.51,0,0,0-13.38,11.71,33.5,33.5,0,0,0-6.34,20.09v2.16a34.75,34.75,0,0,0,5.25,18.77,36.83,36.83,0,0,0,14.6,13.28q9.34,4.88,21.86,4.87a53.72,53.72,0,0,0,21.48-4.4,50.89,50.89,0,0,0,9.42-5.34c6.86,6.87,13,12.26,17.83,16.24,6.5,5.36,10.82,8.36,12.56,9.54a93.79,93.79,0,0,0,11.49,7,76.78,76.78,0,0,0,16.8,6.19c6.19,1.46,10.68,1.66,17.47,1.95,3.94.18,21.34.78,36-3.78.18-.05.41-.12.72-.23,9-2.94,13.8-6.83,16.9-10.37a31,31,0,0,0,3.55-4.94q5.56-9.58,5.56-25.18V157.34Zm-4.17,42.95a23.22,23.22,0,0,1-2.7,11.58,18.57,18.57,0,0,1-7.34,7.34,22.5,22.5,0,0,1-21.09-.15,18.9,18.9,0,0,1-7.41-7.88,26.6,26.6,0,0,1-2.7-12.44,27.36,27.36,0,0,1,2.62-12.36,19.68,19.68,0,0,1,7.42-8.18,20.54,20.54,0,0,1,11-2.94,21.17,21.17,0,0,1,9.88,2.4,18.94,18.94,0,0,1,7.49,7,20.64,20.64,0,0,1,2.86,11.2ZM261.31,224.85a23.66,23.66,0,0,1-11.27-2.4,15.6,15.6,0,0,1-6.73-6.79,21.38,21.38,0,0,1-2.23-9.81,23.77,23.77,0,0,1,6.58-17.25c1.81,2.16,3.83,4.45,6.08,6.9l23.19,25A29.93,29.93,0,0,1,261.31,224.85Z"/><path class="cls-2" d="M7,97.3l81.34,60.08a12,12,0,0,0,7.18,2.36,12.09,12.09,0,0,0,7.19-21.82l-60-44.31A7.16,7.16,0,0,1,42.8,82l59.49-42.4a12.27,12.27,0,0,0,3.51-16.37,12.09,12.09,0,0,0-17.31-3.49l-81.35,58A12.1,12.1,0,0,0,7,97.3Z"/><path class="cls-1" d="M166.69,20.45a12.2,12.2,0,0,0-7.93-2.95,12,12,0,0,0-7,2.25l-81.34,58a12.09,12.09,0,0,0-.17,19.58l76.44,56.45v54.59a7.22,7.22,0,0,1-7.21,7.19,7.06,7.06,0,0,1-4.27-1.47L19.33,126.66a12.09,12.09,0,0,0-17.39,3A12.27,12.27,0,0,0,5,146.15l146.48,110.5a12.1,12.1,0,0,0,15.19-.5,12.36,12.36,0,0,0,4.19-9.42V29.85A12.35,12.35,0,0,0,166.69,20.45ZM103.05,87.79a7.09,7.09,0,0,1,3-5.78l40.62-28.94v70.61L106,93.61A7.1,7.1,0,0,1,103.05,87.79Z"/></g></g></svg>