<svg xmlns="http://www.w3.org/2000/svg" viewBox="0 0 341.79 141.23"><defs><style>.cls-1{fill:#467af6;}.cls-2{fill:#f1f2f2;}</style></defs><g id="Layer_2" data-name="Layer 2"><g id="Layer_1-2" data-name="Layer 1"><path class="cls-1" d="M116.87,52.22a19.83,19.83,0,0,0,6.9,5,23.77,23.77,0,0,0,9.74,1.85,23.42,23.42,0,0,0,10.41-2.24,18.7,18.7,0,0,0,7.34-6.31,17.87,17.87,0,0,0,3-9.43H142a8.35,8.35,0,0,1-1.3,3.74,7.31,7.31,0,0,1-2.84,2.53,9.26,9.26,0,0,1-4.3.91A9.05,9.05,0,0,1,128,46.74a8.67,8.67,0,0,1-3-4.34,19.56,19.56,0,0,1-.94-6.27,18.93,18.93,0,0,1,1-6.55,9.42,9.42,0,0,1,3.12-4.34,8.46,8.46,0,0,1,5.24-1.58,7.85,7.85,0,0,1,5.8,2,8,8,0,0,1,2.33,4.93h12.38a18,18,0,0,0-10.17-15.5,22.8,22.8,0,0,0-10.34-2.25,23.47,23.47,0,0,0-9.5,1.81,19.36,19.36,0,0,0-6.9,5,21.72,21.72,0,0,0-4.19,7.22,25.71,25.71,0,0,0-1.41,8.48v1.5a25.46,25.46,0,0,0,1.34,8.24A20.7,20.7,0,0,0,116.87,52.22Z"/><polygon class="cls-1" points="153.66 0 153.66 9.31 158.79 9.31 158.79 57.59 171.49 57.59 171.49 9.31 171.49 0 158.79 0 153.66 0"/><path class="cls-1" d="M181.3,52.1a20.18,20.18,0,0,0,7,5.09,23.66,23.66,0,0,0,9.75,1.89,23.16,23.16,0,0,0,9.62-1.89,18.66,18.66,0,0,0,6.94-5.29,18.12,18.12,0,0,0,3.71-7.73h-11.6a6.91,6.91,0,0,1-3,3.32,12.76,12.76,0,0,1-11.84-.24,9.13,9.13,0,0,1-3.47-4.45,16.19,16.19,0,0,1-.87-3.52h31.56V35A23.84,23.84,0,0,0,216.6,24.1,20.67,20.67,0,0,0,209.31,16a21.07,21.07,0,0,0-11.72-3.11,22.92,22.92,0,0,0-9.42,1.85,19.77,19.77,0,0,0-6.91,5A22.78,22.78,0,0,0,177,26.86a24.09,24.09,0,0,0-1.46,8.32v1.58A23.67,23.67,0,0,0,177,44.93,22.87,22.87,0,0,0,181.3,52.1ZM188.52,29A9.31,9.31,0,0,1,192,24.61a10,10,0,0,1,5.6-1.5A9.51,9.51,0,0,1,203,24.57a9,9,0,0,1,3.27,4.22,14.79,14.79,0,0,1,.86,3.32H187.65A15.24,15.24,0,0,1,188.52,29Z"/><path class="cls-1" d="M244.25,57a12,12,0,0,0,4.89-4.73,14.83,14.83,0,0,0,1.3-3.06v8.35h10V31.08a18.47,18.47,0,0,0-2.36-9.82,14.33,14.33,0,0,0-6.91-5.72A29,29,0,0,0,240,13.65c-1.53,0-3.15,0-4.89.08s-3.42.13-5,.23-3.05.21-4.26.32V24.93c1.63-.11,3.45-.21,5.45-.32s3.94-.18,5.83-.23,3.42-.08,4.58-.08q3.47,0,5.05,1.65a7,7,0,0,1,1.57,5v.16H240.5a32.49,32.49,0,0,0-10.17,1.46,14.2,14.2,0,0,0-6.86,4.5A12,12,0,0,0,221,44.81a13.69,13.69,0,0,0,2,7.45A12.75,12.75,0,0,0,228.47,57a18.89,18.89,0,0,0,8.17,1.66A16,16,0,0,0,244.25,57ZM233.56,44.1a5.62,5.62,0,0,1,1.78-4.38,7.29,7.29,0,0,1,5.09-1.62h7.88v3.47a10.65,10.65,0,0,1-1.26,5,6.23,6.23,0,0,1-2.8,2.56,9.17,9.17,0,0,1-3.82.75,7.33,7.33,0,0,1-5.09-1.61A5.43,5.43,0,0,1,233.56,44.1Z"/><path class="cls-1" d="M277.22,35.58c0-3.53.95-6.22,2.84-8.09s4.58-2.8,8.05-2.8h3.16V13.8h-1.66q-7.42,0-11.32,5a19.37,19.37,0,0,0-3.67,9.9V14.36h-10V57.59h12.62Z"/><path class="cls-1" d="M250.53,80h-1.65q-7.42,0-11.32,5a19.3,19.3,0,0,0-3.67,9.89V80.5h-10v43.23h12.62v-22q0-5.28,2.84-8.09c1.89-1.86,4.58-2.8,8-2.8h3.15Z"/><path class="cls-1" d="M280.55,81.68a29.11,29.11,0,0,0-11.16-1.89c-1.53,0-3.16,0-4.89.08s-3.42.13-5.05.24-3.05.21-4.26.31V91.07c1.63-.1,3.44-.21,5.44-.31s3.94-.19,5.84-.24,3.41-.08,4.57-.08q3.48,0,5,1.66a7,7,0,0,1,1.58,5v.15h-7.81a32.56,32.56,0,0,0-10.18,1.46,14.39,14.39,0,0,0-6.86,4.5,12,12,0,0,0-2.44,7.77,13.58,13.58,0,0,0,2,7.45,12.78,12.78,0,0,0,5.48,4.78,19,19,0,0,0,8.16,1.65,16.13,16.13,0,0,0,7.62-1.65,12.25,12.25,0,0,0,4.89-4.74,15.39,15.39,0,0,0,1.3-3.06v8.35h10V97.22a18.43,18.43,0,0,0-2.37-9.82A14.41,14.41,0,0,0,280.55,81.68Zm-6.94,33.65a9.38,9.38,0,0,1-3.83.75,7.3,7.3,0,0,1-5.09-1.62,5.44,5.44,0,0,1-1.77-4.22,5.65,5.65,0,0,1,1.77-4.38,7.3,7.3,0,0,1,5.09-1.62h7.89v3.48a10.84,10.84,0,0,1-1.26,5A6.26,6.26,0,0,1,273.61,115.33Z"/><path class="cls-1" d="M340.41,92.41a21.28,21.28,0,0,0-3.9-7,17.18,17.18,0,0,0-6.12-4.57,19.22,19.22,0,0,0-8-1.62,17.78,17.78,0,0,0-9,2.25,15.17,15.17,0,0,0-5.68,5.83V66.14H295.1v57.59h10v-9.44a17.42,17.42,0,0,0,.95,2.1,15.85,15.85,0,0,0,6.31,6.51,18.73,18.73,0,0,0,9.31,2.25,19.89,19.89,0,0,0,8.36-1.7,18.58,18.58,0,0,0,6.35-4.73,21,21,0,0,0,4-7.06,26.82,26.82,0,0,0,1.38-8.76v-1.73A26.82,26.82,0,0,0,340.41,92.41Zm-12.66,16.13A10.44,10.44,0,0,1,324,113a10.09,10.09,0,0,1-5.64,1.58,11.53,11.53,0,0,1-5.21-1.26,10.73,10.73,0,0,1-4.14-3.67,10.16,10.16,0,0,1-1.62-5.8v-2.92a11.17,11.17,0,0,1,1.54-6A10.51,10.51,0,0,1,313,91.07a11.31,11.31,0,0,1,5.37-1.34,10,10,0,0,1,9.38,5.84,14.58,14.58,0,0,1,1.34,6.47A15.08,15.08,0,0,1,327.75,108.54Z"/><path class="cls-1" d="M209.39,80.34v9.23c-.2-.5-.39-1-.63-1.5a15.77,15.77,0,0,0-6-6.7,17.22,17.22,0,0,0-9-2.29,20.29,20.29,0,0,0-8.21,1.62,18.88,18.88,0,0,0-6.39,4.53A20.3,20.3,0,0,0,175,92.1a25.12,25.12,0,0,0-1.42,8.51v1.82a26,26,0,0,0,1.34,8.48,20.59,20.59,0,0,0,3.87,6.82,17.43,17.43,0,0,0,6.11,4.54,19.24,19.24,0,0,0,8,1.62,17.23,17.23,0,0,0,8.83-2.17,14.94,14.94,0,0,0,5.76-6.21v3.72a12.38,12.38,0,0,1-1.5,6.19c-4.39,7.82-16.77,7.27-18.39,7.2a30.87,30.87,0,0,1-13.45-4.1,47.8,47.8,0,0,1-8.55-6,88.42,88.42,0,0,1-10-9.7,33.49,33.49,0,0,0,3.53-7.2,43,43,0,0,0,2.19-13.09h4V83.26H142.9v9.23h7.39A32.81,32.81,0,0,1,148,104.58L137.06,92.73a28.35,28.35,0,0,1-4.3-5.72,11,11,0,0,1-1.3-5.17A6.36,6.36,0,0,1,133,77.27q1.58-1.67,6.23-1.66c.95,0,2.17,0,3.67.12s3,.2,4.53.35,2.82.32,3.87.48V66.14q-2.29-.39-5.32-.67c-2-.18-4-.27-6-.27a28.35,28.35,0,0,0-11.56,2,14.15,14.15,0,0,0-6.58,5.56,16.11,16.11,0,0,0-2.13,8.44,16.82,16.82,0,0,0,1.7,7.82,20.12,20.12,0,0,0-6.83,6,17.11,17.11,0,0,0-3.23,10.26v1.1a17.73,17.73,0,0,0,2.68,9.59,18.75,18.75,0,0,0,7.45,6.78,23.79,23.79,0,0,0,11.16,2.49,27.37,27.37,0,0,0,11-2.25,26.25,26.25,0,0,0,4.81-2.73c3.5,3.51,6.64,6.26,9.11,8.3,3.31,2.73,5.52,4.26,6.41,4.87a48.15,48.15,0,0,0,5.86,3.59,39.68,39.68,0,0,0,8.59,3.16,42.65,42.65,0,0,0,8.91,1c2,.09,10.9.39,18.38-1.93l.37-.12a18.5,18.5,0,0,0,8.63-5.29,15.62,15.62,0,0,0,1.81-2.53q2.85-4.89,2.84-12.86V80.34Zm-2.12,21.93a12,12,0,0,1-1.38,5.92,9.5,9.5,0,0,1-3.75,3.74,11.45,11.45,0,0,1-10.77-.07,9.66,9.66,0,0,1-3.79-4,13.53,13.53,0,0,1-1.38-6.35,14,14,0,0,1,1.34-6.31A10.1,10.1,0,0,1,191.33,91a10.5,10.5,0,0,1,5.6-1.5,10.8,10.8,0,0,1,5,1.23,9.67,9.67,0,0,1,3.83,3.55,10.56,10.56,0,0,1,1.46,5.71Zm-73.84,12.54a12,12,0,0,1-5.75-1.22,7.9,7.9,0,0,1-3.44-3.47,10.92,10.92,0,0,1-1.14-5,12.62,12.62,0,0,1,1.46-6.19,13.17,13.17,0,0,1,1.9-2.62c.93,1.11,2,2.28,3.11,3.53l11.84,12.77A15.25,15.25,0,0,1,133.43,114.81Z"/><path class="cls-2" d="M3.56,49.68,45.1,80.36a6.13,6.13,0,0,0,3.66,1.21,6.17,6.17,0,0,0,3.68-11.14L21.8,47.8a3.66,3.66,0,0,1,.05-5.92L52.23,20.23A6.27,6.27,0,0,0,54,11.87a6.19,6.19,0,0,0-8.84-1.79L3.65,39.69a6.17,6.17,0,0,0-.09,10Z"/><path class="cls-1" d="M85.11,10.44a6.21,6.21,0,0,0-7.63-.36L36,39.69a6.17,6.17,0,0,0-.09,10l39,28.83v27.88A3.65,3.65,0,0,1,69,109.31L9.87,64.68a6.08,6.08,0,0,0-3.71-1.25A6.16,6.16,0,0,0,1,66.22a6.28,6.28,0,0,0,1.56,8.41l74.8,56.42a6.15,6.15,0,0,0,3.72,1.25A6.16,6.16,0,0,0,87.24,126V15.24A6.29,6.29,0,0,0,85.11,10.44ZM52.62,44.83a3.63,3.63,0,0,1,1.53-2.95L74.89,27.1V63.15L54.1,47.8A3.63,3.63,0,0,1,52.62,44.83Z"/></g></g></svg>