<svg xmlns="http://www.w3.org/2000/svg" viewBox="0 0 190.71 269.66"><defs><style>.cls-1{fill:#1fad1a;}.cls-2{fill:#467af6;}</style></defs><g id="Layer_2" data-name="Layer 2"><g id="Layer_1-2" data-name="Layer 1"><path class="cls-1" d="M7.79,89.07l90.79,67.06a13.38,13.38,0,0,0,8,2.64,13.5,13.5,0,0,0,8-24.36L47.66,85A8,8,0,0,1,47.77,72l66.4-47.33a13.69,13.69,0,0,0,3.92-18.27,13.49,13.49,0,0,0-19.32-3.9L8,67.22a13.5,13.5,0,0,0-.18,21.85Z"/><path class="cls-2" d="M186.05,3.3a13.49,13.49,0,0,0-16.68-.79L78.58,67.22a13.49,13.49,0,0,0-.19,21.85l85.32,63V213a8,8,0,0,1-8.05,8,7.83,7.83,0,0,1-4.76-1.63L21.58,121.84a13.5,13.5,0,0,0-19.42,3.38A13.71,13.71,0,0,0,5.58,143.6l163.5,123.33a13.47,13.47,0,0,0,16.95-.56,13.74,13.74,0,0,0,4.68-10.5V13.78A13.76,13.76,0,0,0,186.05,3.3ZM115,78.45A7.89,7.89,0,0,1,118.37,72L163.71,39.7v78.82L118.26,85A7.93,7.93,0,0,1,115,78.45Z"/></g></g></svg>